<?xml version="1.0" encoding="UTF-8" standalone="no"?>

<svg
    xmlns:dc="http://purl.org/dc/elements/1.1/"
    xmlns:cc="http://creativecommons.org/ns#"
    xmlns:rdf="http://www.w3.org/1999/02/22-rdf-syntax-ns#"
    xmlns:svg="http://www.w3.org/2000/svg"
    xmlns="http://www.w3.org/2000/svg"
    version="1.1"
    id="draeger_logo"
    xml:space="preserve"
    width="1271.6267"
    height="630.84003"
    viewBox="0 0 1271.6267 630.84003">

    <metadata id="draeger_logo_metadata">
        <rdf:RDF>
            <cc:Work rdf:about="">
                <dc:format>image/svg+xml</dc:format>
                <dc:type rdf:resource="http://purl.org/dc/dcmitype/StillImage" />
                <dc:title>Dräger Logo</dc:title>
            </cc:Work>
        </rdf:RDF>
    </metadata>

    <defs id="draeger_logo_defs" />
    <g transform="matrix(1.3333333,0,0,-1.3333333,0,630.84)">
        <g id="draeger_logo_all" transform="scale(0.1)">
            <path
                d="m 2228.85,3664.87 h -918.52 v -235.74 h 727.03 c 84.53,0.07 152.89,-67.54 153.75,-151.18 v -1349.3 c -0.86,-83.67 -69.22,-151.4 -153.75,-151.4 0,0 -127.73,0 -276.17,0 l 0.08,1432.11 -450.94,-0.04 V 1531.93 h 918.52 c 215.23,0 389.84,172.35 391.79,386.41 v 1359.97 c -1.95,214.02 -176.56,386.56 -391.79,386.56 v 0"
                style="fill:#000099;fill-opacity:1;fill-rule:nonzero;stroke:none"
                id="D"/>
            <path
                d="m 3016.89,3051.67 c -182.42,-45.32 -236.56,-109.15 -260.15,-125 V 1531.93 h 429.61 v 1154.23 c -2.58,143.04 211.56,190.32 347.81,90.78 l 0.23,317.42 c -252.81,0.98 -404.45,-17.11 -517.5,-42.69 v 0"
                style="fill:#000099;fill-opacity:1;fill-rule:nonzero;stroke:none"
                id="r"/>
            <path
                d="m 4255.25,1779.2 h -199.53 c -92.34,-1.64 -160.47,65 -162.42,162.42 -1.48,76.95 -1.48,86.95 0,176.25 1.41,89.38 70.08,160.94 162.42,159.85 h 199.53 V 1779.2 Z m 63.44,1315.51 H 3622.6 v -317.38 c 0,0 245.39,82.58 415.78,82.58 207.66,0 218.75,-104.22 217.03,-150.86 v -186.64 c -138.91,-0.08 -419.14,0 -419.14,0 -191.41,-0.08 -346.64,-154.15 -347.5,-344.69 0,0 0,-299.38 0,-299.54 0,-191.17 155.7,-346.25 347.5,-346.25 H 4684.7 V 2732.8 c -1.4,214.02 -176.01,361.91 -366.01,361.91 v 0"
                style="fill:#000099;fill-opacity:1;fill-rule:nonzero;stroke:none"
                id="a"/>
            <path
                d="m 4087.91,3476.63 c 0,129.18 -105.31,233.79 -234.77,233.79 -129.92,0 -235,-104.65 -235,-233.94 0,-129.11 105.08,-233.79 235,-233.76 129.46,0 234.77,104.8 234.77,233.91 v 0"
                style="fill:#000099;fill-opacity:1;fill-rule:nonzero;stroke:none"
                id="ä_firstdot"/>
            <path
                d="m 4653.84,3476.63 c 0,129.25 -104.91,233.79 -234.84,233.79 -129.68,0 -234.84,-104.61 -234.84,-233.79 0,-129.11 105.16,-233.87 234.84,-233.87 129.93,0 234.84,104.76 234.84,233.87 v 0"
                style="fill:#000099;fill-opacity:1;fill-rule:nonzero;stroke:none"
                id="ä_seconddot"/>
            <path
                d="m 5579.45,2520.22 c 0,-66.87 -18.43,-182.19 -184.53,-182.27 -166.01,-0.16 -184.61,115.32 -184.61,182.23 v 154.1 c 0,66.64 18.6,182.35 184.61,182.35 166.1,0 184.53,-115.62 184.53,-182.19 v -154.22 z m -408.98,574.54 c -215,1.01 -364.06,-175.56 -363.05,-365.09 v -258.28 c -0.23,-213.67 175.39,-362.58 365.86,-361.72 h 434.85 c 213.35,-0.63 363.35,175.47 362.96,364.85 v 620.24 h -800.62 v 0"
                style="fill:#000099;fill-opacity:1;fill-rule:nonzero;stroke:none"
                id="g_upper"/>
            <path
                d="m 5597.11,1474.98 c 0,-66.41 -19.53,-182.03 -194.77,-182.03 -174.68,0 -194.21,115.62 -194.21,181.95 v 154.38 c 0,66.72 19.53,182.5 194.21,182.5 175.24,0 194.77,-115.86 194.77,-182.5 v -154.3 z m 44.22,575.39 -486.95,-0.15 c -214.07,0.23 -363.75,-172.43 -363.13,-361.88 v -257.03 c -0.47,-212.74 175.78,-365.24 366.09,-364.92 h 486.41 c 213.91,0 364.69,176.79 363.59,364.92 v 257.03 c -1.87,214.22 -176.09,361.88 -366.01,362.03 v 0"
                style="fill:#000099;fill-opacity:1;fill-rule:nonzero;stroke:none"
                id="g_lower"/>
            <path
                d="m 6520.94,2357.32 v 318.29 c 0,66.72 23.44,182.34 184.37,182.34 160.71,0 184.46,-115.62 184.46,-182.34 v -318.29 h -368.83 z m 794.92,-242.57 v 618.36 c 0.39,213.99 -176.88,361.84 -366.56,361.84 l -483.6,-0.08 c -190.39,0.9 -365.93,-146.88 -365.93,-361.99 v -839.23 c -0.55,-213.9 176.17,-362.03 384.92,-361.72 h 818.75 v 316.41 c 0,0 -275.78,-78.44 -538.52,-78.12 -170.62,0.15 -234.92,69.68 -235.7,153.35 v 191.18 h 786.64 v 0"
                style="fill:#000099;fill-opacity:1;fill-rule:nonzero;stroke:none"
                id="e"/>
            <path
                d="m 7709.69,3052.06 c -182.58,-45.24 -236.33,-109.07 -260.31,-124.93 v -1395.2 h 429.37 v 1154.62 c -2.27,143.05 211.95,190.39 348.2,90.78 v 317.54 c -252.5,1.01 -404.61,-17.35 -517.26,-42.81 v 0"
                style="fill:#000099;fill-opacity:1;fill-rule:nonzero;stroke:none"
                id="r"/>
        </g>
    </g>
</svg>